HIERARCHY
ROOT hip
{
	OFFSET 0.000000 0.000000 0.000000 
	CHANNELS 6 Xposition Yposition Zposition Xrotation Zrotation Yrotation
	JOINT abdomen
	{
		OFFSET 0.000000 3.402643 0.000000 
		CHANNELS 3 Xrotation Zrotation Yrotation
		JOINT chest
		{
			OFFSET 0.000000 8.438565 -0.680529 
			CHANNELS 3 Xrotation Zrotation Yrotation
			JOINT neck
			{
				OFFSET 0.000000 10.207942 -0.272212 
				CHANNELS 3 Xrotation Zrotation Yrotation
				JOINT head
				{
					OFFSET 0.000000 3.130431 0.000000 
					CHANNELS 3 Xrotation Zrotation Yrotation
					End Site
					{
						OFFSET 0.000000 3.130435 0.000000 
					}
				}
			}
			JOINT lCollar
			{
				OFFSET 3.470700 6.669187 -0.816635 
				CHANNELS 3 Yrotation Zrotation Xrotation
				JOINT lShldr
				{
					OFFSET 3.198488 0.000000 0.000000 
					CHANNELS 3 Zrotation Yrotation Xrotation
					JOINT lForeArm
					{
						OFFSET 10.139888 0.000000 0.000000 
						CHANNELS 3 Yrotation Zrotation Xrotation
						JOINT lHand
						{
							OFFSET 8.370511 0.000000 0.000000 
							CHANNELS 3 Zrotation Yrotation Xrotation
							End Site
							{
								OFFSET 4.083176 0.000000 0.000000 
							}
						}
					}
				}
			}
			JOINT rCollar
			{
				OFFSET -3.470700 6.669187 -0.816635 
				CHANNELS 3 Yrotation Zrotation Xrotation
				JOINT rShldr
				{
					OFFSET -3.198488 0.000000 0.000000 
					CHANNELS 3 Zrotation Yrotation Xrotation
					JOINT rForeArm
					{
						OFFSET -10.139888 0.000000 0.000000 
						CHANNELS 3 Yrotation Zrotation Xrotation
						JOINT rHand
						{
							OFFSET -8.370511 0.000000 0.000000 
							CHANNELS 3 Zrotation Yrotation Xrotation
							End Site
							{
								OFFSET -4.083176 0.000000 0.000000 
							}
						}
					}
				}
			}
		}
	}
	JOINT lThigh
	{
		OFFSET 5.308129 -1.633274 1.361059 
		CHANNELS 3 Xrotation Zrotation Yrotation
		JOINT lShin
		{
			OFFSET -2.041588 -20.007561 0.000000 
			CHANNELS 3 Xrotation Zrotation Yrotation
			JOINT lFoot
			{
				OFFSET 0.000000 -19.190928 -1.224953 
				CHANNELS 3 Xrotation Yrotation Zrotation
				End Site
				{
					OFFSET 0.000000 -2.449906 4.627600 
				}
			}
		}
	}
	JOINT rThigh
	{
		OFFSET -5.308129 -1.633274 1.361059 
		CHANNELS 3 Xrotation Zrotation Yrotation
		JOINT rShin
		{
			OFFSET 2.041588 -20.007561 0.000000 
			CHANNELS 3 Xrotation Zrotation Yrotation
			JOINT rFoot
			{
				OFFSET 0.000000 -19.190928 -1.224953 
				CHANNELS 3 Xrotation Yrotation Zrotation
				End Site
				{
					OFFSET 0.000000 -2.449906 4.627600 
				}
			}
		}
	}
}
MOTION
Frames: 16
Frame Time: 0.033333
-5.202979 19.378635 0.429628 -0.927734 2.031250 62.607769 10.370376 -8.712459 -6.345483 44.902344 6.435547 11.972655 -7.268096 -3.122295 -7.343094 -25.087891 -2.910156 -6.943359 2.000000 -2.000000 0.000000 -69.609375 21.044922 -22.398838 2.726312 -1.161611 2.430531 -12.212229 10.907644 61.860676 -2.000000 2.000000 0.000000 59.365231 -29.902342 -15.556641 -3.351557 1.346821 2.441487 20.941414 0.314931 11.928600 -89.720978 9.989686 1.482859 131.080276 3.013716 4.863164 -39.176086 -2.356327 -3.788713 -94.811508 -4.795170 2.969559 127.333603 -3.064681 -12.489458 -28.392187 -2.904856 11.009656 
-5.383186 18.031864 0.298374 -2.265625 4.902344 62.774273 10.370376 -8.712459 -6.345483 47.119144 5.957031 12.110388 -7.138139 -3.196658 -7.510206 -26.328127 -2.851562 -7.158204 2.000000 -2.000000 0.000000 -71.621094 32.578125 -25.502556 2.872870 -1.220098 2.434063 -10.668229 6.307398 53.875481 -2.000000 2.000000 0.000000 61.054684 -39.570309 -21.162107 -3.371102 1.356569 2.442074 19.015722 1.576601 10.024389 -90.743851 10.457729 2.063680 133.827042 3.206063 5.055718 -37.761646 -2.842737 -2.727856 -95.924805 -4.756135 3.516406 129.862198 -3.180070 -13.008998 -26.541338 -2.746079 11.104589 
-5.677533 17.803837 0.106337 -3.203125 7.001954 63.085938 10.370376 -8.712459 -6.345483 45.732426 5.625000 11.846660 -7.258734 -2.886095 -6.755989 -28.593750 -2.236328 -6.611329 2.000000 -2.000000 0.000000 -71.005859 34.580078 -30.302732 2.970564 -1.249342 2.435829 -4.812865 8.696198 47.877621 -2.000000 2.000000 0.000000 63.330082 -40.703121 -23.121601 -3.332068 1.376065 2.443248 13.427207 -1.871214 -1.060172 -89.848000 10.360538 2.685858 133.749573 3.166953 4.793125 -36.264126 -2.840088 -1.779257 -94.887428 -4.863229 3.986972 129.771545 -3.211637 -13.674615 -25.057495 -2.567300 11.427991 
-5.831062 19.103168 -0.104953 -3.750000 9.511719 64.025055 10.370376 -8.712459 -6.345483 42.773441 5.693359 11.495110 -7.372574 -3.006370 -6.965542 -29.199223 -2.333984 -6.826173 2.000000 -2.000000 0.000000 -64.863281 22.197266 -20.758028 3.165983 -1.327326 2.440539 -0.358183 16.287277 32.290089 -2.000000 2.000000 0.000000 63.691406 -33.427734 2.656250 6.062117 1.140352 2.458395 13.297368 -6.059213 -36.528915 -84.114471 7.870315 3.310011 130.257065 3.004312 5.042476 -35.889721 -2.113839 -2.337436 -89.006821 -5.508363 5.224775 126.761955 -3.014656 -14.214036 -25.137831 -2.563334 12.513320 
-6.208466 21.291578 -0.388729 -4.599609 12.646484 64.416206 10.370376 -8.712459 -6.345483 38.798828 5.917969 11.074219 -7.509096 -3.300474 -7.544031 -28.740238 -3.164063 -7.050782 2.000000 -2.000000 0.000000 -57.958984 -11.416016 -8.478496 3.312536 -1.376065 2.443482 -1.079785 38.749538 14.978580 -2.000000 2.000000 0.000000 38.349609 -32.392578 86.684219 63.049149 0.318127 3.113158 -1.986181 -25.788939 -110.229149 -76.034294 5.322292 3.231462 124.344711 2.667729 5.215446 -34.775249 -1.280923 -3.305242 -80.628181 -6.396893 5.664185 121.191750 -2.702613 -14.398898 -24.774460 -2.369516 12.688645 
-7.160089 23.657677 -0.913620 -6.152344 15.937500 64.162842 10.370376 -8.712459 -6.345483 34.306641 6.376953 10.625000 -7.727118 -2.981714 -6.800882 -28.583984 -2.861328 -6.357422 2.000000 -2.000000 0.000000 -58.378902 -48.984375 22.619585 3.156272 -1.366317 2.442894 -24.947905 51.740852 -34.577953 -2.000000 2.000000 0.000000 7.714845 65.820313 -93.291870 -3.234383 1.356569 2.442074 -51.767166 -65.876564 32.568451 -68.341507 3.192600 2.310482 117.052528 2.232751 5.716424 -31.473583 -0.705729 -4.193553 -72.258354 -6.992174 5.045224 113.931610 -2.246336 -14.230768 -22.522923 -1.918274 11.595985 
-8.158779 25.382732 -1.608902 -6.865235 18.750002 64.589851 10.370376 -8.712459 -6.345483 28.369141 6.318359 9.874122 -8.031080 -2.740548 -6.115820 -31.064455 -2.099609 -6.054688 2.000000 -2.000000 0.000000 49.277344 -66.953125 -146.054688 -156.369797 -1.652127 4.505579 127.479813 -13.436425 -131.302765 -2.000000 2.000000 0.000000 94.746086 103.203125 -7.763674 -3.175981 1.336486 2.450645 -28.791227 -46.939030 -4.580830 -63.070095 0.731957 2.106021 110.793228 1.843085 6.183881 -27.622906 -0.299881 -4.237453 -66.418648 -7.792883 5.134590 107.980034 -1.857210 -14.091403 -19.760147 -1.854144 10.719501 
-7.548189 28.021788 -1.561586 -9.335938 21.210939 65.823845 10.370376 -8.712459 -6.345483 22.539063 7.783204 9.316406 -8.253872 -2.767633 -6.230238 -34.501957 -0.361328 -7.294923 2.000000 -2.000000 0.000000 -65.859375 -113.427734 -19.326172 3.332096 -1.395561 2.444660 53.527359 4.869859 19.748503 -2.000000 2.000000 0.000000 61.269558 112.802734 -9.463656 -3.117127 1.307830 2.439138 -14.454823 -10.492847 -34.683449 -53.465332 0.185036 0.887197 104.689003 1.424135 4.897073 -28.090263 -0.619793 -2.680938 -55.526176 -7.831947 3.777564 101.909218 -1.407551 -15.267918 -20.398851 -2.540707 12.349938 
-5.112120 32.568623 -0.823516 -14.218750 26.474611 65.941856 10.370376 -8.712459 -6.345483 14.755862 10.292970 8.351354 -8.611414 -2.791372 -6.454247 -30.351561 -0.615234 -7.285262 2.000000 -2.000000 0.000000 -54.179695 -116.718750 -15.888671 3.351613 -1.385813 2.444071 45.507549 -8.760606 6.072713 -2.000000 2.000000 0.000000 65.869141 115.615242 7.479509 15.826322 1.038759 2.520742 -21.287067 -4.048038 -22.683027 -33.662941 1.161536 -1.287884 95.343414 0.741863 3.218168 -32.069828 -2.093966 -1.343933 -34.203320 -5.643483 0.541066 92.634377 -0.733045 -15.854504 -24.555080 -5.980807 13.626728 
-2.116680 39.032417 0.104072 -21.396484 36.015625 63.076176 10.370376 -8.712459 -6.345483 7.236329 11.953125 7.130929 -8.751069 -4.085901 -9.363474 -23.173830 -1.474609 -10.185548 2.000000 -2.000000 0.000000 -57.880859 -114.121086 -10.722655 -4.890132 -1.228083 2.463888 31.925974 -9.903548 12.800660 -2.000000 2.000000 0.000000 72.851563 110.615234 16.503281 29.720144 0.865400 2.637453 -20.769251 -3.715123 -8.014483 -8.847838 6.113528 1.504874 80.020500 -0.428770 -2.394921 -19.048473 -2.786893 3.782429 -9.153789 -3.259594 -0.775810 77.221886 0.447611 -16.280668 -9.925939 -4.605351 14.002358 
0.149375 45.992416 0.670365 -30.058594 44.082035 57.448200 10.370376 -8.712459 -6.345483 -3.124999 12.900392 5.265852 -9.170136 -4.302802 -9.825404 -15.195313 -1.035156 -10.908204 2.000000 -2.000000 0.000000 -60.859367 -103.642578 -10.087613 -8.971594 -1.158085 2.489003 19.107185 -11.514980 16.069529 -2.000000 2.000000 0.000000 94.628914 100.781250 35.341618 37.032490 0.791280 2.730798 -17.171898 -5.016269 -3.389725 5.025894 11.772884 7.294354 76.505608 -0.786669 -8.073047 19.531782 -1.924959 -1.560326 1.531354 -2.469243 -0.362432 77.281776 0.496982 -9.430381 28.477888 1.499259 4.420057 
0.923184 52.054272 0.631857 -41.923828 51.582031 46.150227 10.370376 -8.712459 -6.345483 -10.917968 12.998048 3.830321 -9.630758 -3.477164 -7.932236 -11.230469 0.136719 -9.179665 2.000000 -2.000000 0.000000 -31.210936 -85.664063 -40.439419 -11.022202 -1.118505 2.496393 10.002432 -13.603404 15.822595 -2.000000 2.000000 0.000000 8.095703 83.974609 -53.037113 36.476067 0.791869 2.721053 -13.619091 -2.951545 -4.010760 6.716937 14.139068 11.233094 94.863426 0.516817 -17.881714 25.637283 -0.759884 0.326583 -7.466123 0.946282 -2.548482 104.243675 -1.518157 -19.756006 30.150118 8.070765 27.470203 
1.211742 56.655846 0.328325 -63.427731 60.195313 22.713552 10.370376 -8.712459 -6.345483 -10.205079 12.236329 4.111328 -9.682663 -2.940637 -6.658942 -10.703127 -0.410156 -7.500009 2.000000 -2.000000 0.000000 -46.542973 -63.056641 -28.339844 -10.377661 -1.128253 2.496982 5.494288 -17.706961 16.839886 -2.000000 2.000000 0.000000 56.875000 76.455078 -9.619141 25.277596 0.926240 2.601994 -9.572498 6.585505 -2.423690 0.730212 15.383348 13.821444 125.127388 2.623480 -6.477014 20.064808 -2.913518 -5.199656 -33.921360 -1.289341 -3.612114 127.171417 -3.007484 -13.005902 21.408560 4.394563 24.451754 
1.464813 61.555676 -0.057259 -122.666016 59.130859 -28.554688 10.370376 -8.712459 -6.345483 9.335939 9.257813 7.550399 -8.776834 -3.447742 -7.670082 -12.958986 0.107422 -8.955078 2.000000 -2.000000 0.000000 -48.818356 -57.871094 -31.824677 3.234369 -1.346822 2.441716 3.908756 -15.818480 24.993708 -2.000000 2.000000 0.000000 52.470699 64.140625 -23.359373 8.151486 1.168421 2.479647 -4.547518 14.419846 3.426576 -3.652719 19.022381 13.480121 137.790985 3.266899 -9.426382 17.162746 -1.828608 -1.037022 -39.370880 -0.605521 -4.145034 119.692177 -2.555331 -16.960316 35.051228 8.652746 25.482018 
0.483489 65.269928 -0.912487 -148.701172 44.023438 -46.975632 10.370376 -8.712459 -6.345483 21.855471 9.326173 9.357052 -8.230984 -3.306267 -7.582654 -16.035156 1.757813 -9.589845 2.000000 -2.000000 0.000000 -53.837891 -54.042969 -33.865326 3.175748 -1.327326 2.440539 3.439510 0.371675 32.136742 -2.000000 2.000000 0.000000 55.078121 49.941406 -26.298828 0.222511 1.297494 2.448297 -2.759974 11.319323 6.064046 -20.614275 20.662827 6.920754 131.136978 2.924643 -15.150618 19.620811 -2.277634 -3.694237 -49.198902 -0.518212 -3.808259 104.064865 -1.479127 -11.699737 41.175835 3.479760 7.968478 
-1.296813 67.548569 -2.220752 -160.839844 29.267580 -54.580078 10.370376 -8.712459 -6.345483 28.749998 8.320313 10.214845 -7.946617 -3.314955 -7.640591 -21.347658 4.599608 -11.298829 2.000000 -2.000000 0.000000 -58.837887 -48.056644 -32.155704 3.175748 -1.327326 2.440539 3.153762 10.029206 33.126873 -2.000000 2.000000 0.000000 63.613281 37.480469 -24.697266 -3.371102 1.356569 2.442074 -5.122860 10.306193 9.292660 -30.645952 17.905100 1.798126 119.758980 2.308603 -10.162690 7.144425 -2.470732 -2.182728 -51.453175 -1.073634 -2.196035 77.987206 0.488568 -1.650546 3.629389 -0.179795 -9.801312 
